<svg width="34" height="16" viewBox="0 0 34 16" fill="none" xmlns="http://www.w3.org/2000/svg">
<path d="M3.27898 15V1.8L4.13898 2.74H0.118984V0.999999H5.25898V15H3.27898ZM14.0413 15.16C12.948 15.16 11.968 14.88 11.1013 14.32C10.248 13.76 9.56799 12.9467 9.06133 11.88C8.56799 10.8133 8.32133 9.52 8.32133 8C8.32133 6.48 8.56799 5.18667 9.06133 4.12C9.56799 3.05333 10.248 2.24 11.1013 1.68C11.968 1.12 12.948 0.84 14.0413 0.84C15.1213 0.84 16.0947 1.12 16.9613 1.68C17.828 2.24 18.508 3.05333 19.0013 4.12C19.4947 5.18667 19.7413 6.48 19.7413 8C19.7413 9.52 19.4947 10.8133 19.0013 11.88C18.508 12.9467 17.828 13.76 16.9613 14.32C16.0947 14.88 15.1213 15.16 14.0413 15.16ZM14.0413 13.38C14.7747 13.38 15.4147 13.18 15.9613 12.78C16.5213 12.38 16.9547 11.78 17.2613 10.98C17.5813 10.18 17.7413 9.18667 17.7413 8C17.7413 6.81333 17.5813 5.82 17.2613 5.02C16.9547 4.22 16.5213 3.62 15.9613 3.22C15.4147 2.82 14.7747 2.62 14.0413 2.62C13.308 2.62 12.6613 2.82 12.1013 3.22C11.5413 3.62 11.1013 4.22 10.7813 5.02C10.4747 5.82 10.3213 6.81333 10.3213 8C10.3213 9.18667 10.4747 10.18 10.7813 10.98C11.1013 11.78 11.5413 12.38 12.1013 12.78C12.6613 13.18 13.308 13.38 14.0413 13.38ZM27.3812 15.16C26.2878 15.16 25.3078 14.88 24.4412 14.32C23.5878 13.76 22.9078 12.9467 22.4012 11.88C21.9078 10.8133 21.6612 9.52 21.6612 8C21.6612 6.48 21.9078 5.18667 22.4012 4.12C22.9078 3.05333 23.5878 2.24 24.4412 1.68C25.3078 1.12 26.2878 0.84 27.3812 0.84C28.4612 0.84 29.4345 1.12 30.3012 1.68C31.1678 2.24 31.8478 3.05333 32.3412 4.12C32.8345 5.18667 33.0812 6.48 33.0812 8C33.0812 9.52 32.8345 10.8133 32.3412 11.88C31.8478 12.9467 31.1678 13.76 30.3012 14.32C29.4345 14.88 28.4612 15.16 27.3812 15.16ZM27.3812 13.38C28.1145 13.38 28.7545 13.18 29.3012 12.78C29.8612 12.38 30.2945 11.78 30.6012 10.98C30.9212 10.18 31.0812 9.18667 31.0812 8C31.0812 6.81333 30.9212 5.82 30.6012 5.02C30.2945 4.22 29.8612 3.62 29.3012 3.22C28.7545 2.82 28.1145 2.62 27.3812 2.62C26.6478 2.62 26.0012 2.82 25.4412 3.22C24.8812 3.62 24.4412 4.22 24.1212 5.02C23.8145 5.82 23.6612 6.81333 23.6612 8C23.6612 9.18667 23.8145 10.18 24.1212 10.98C24.4412 11.78 24.8812 12.38 25.4412 12.78C26.0012 13.18 26.6478 13.38 27.3812 13.38Z" fill="#1E1E1E"/>
</svg>
